<svg xmlns="http://www.w3.org/2000/svg" width="100" height="28" viewBox="0 0 100 28" fill="none">
  <path d="M0 2C0 0.895431 0.895431 0 2 0H98C99.1046 0 100 0.895431 100 2V26C100 27.1046 99.1046 28 98 28H2C0.895431 28 0 27.1046 0 26V2Z" fill="white"/>
  <path d="M41.6 21H37.2V10.4H41.6V21ZM37 6.8C37 6.2 37.2 5.7 37.6 5.3C38 4.9 38.5 4.7 39.2 4.7C39.9 4.7 40.4 4.9 40.8 5.3C41.2 5.7 41.4 6.2 41.4 6.8C41.4 7.4 41.2 7.9 40.8 8.3C40.4 8.7 39.9 8.9 39.2 8.9C38.5 8.9 38 8.7 37.6 8.3C37.2 7.9 37 7.4 37 6.8ZM47.1 7.9V10.4H49.3V13.7H47.1V17.4C47.1 17.8 47.2 18.1 47.4 18.3C47.6 18.5 47.9 18.6 48.3 18.6C48.7 18.6 49 18.6 49.2 18.5V21.7C48.6 21.9 47.9 22 47.2 22C44.9 22 43.7 20.8 43.7 18.4V13.7H41.9V10.4H43.7V7.9H47.1ZM49.9 15.7C49.9 14.5 50.2 13.4 50.8 12.4C51.4 11.4 52.2 10.6 53.2 10C54.2 9.4 55.4 9.1 56.7 9.1C58.4 9.1 59.8 9.6 60.9 10.6C62 11.6 62.7 13 62.9 14.8H59.3C59.1 14.1 58.7 13.5 58.2 13.1C57.7 12.7 57.1 12.5 56.3 12.5C55.3 12.5 54.5 12.9 53.9 13.7C53.3 14.5 53 15.5 53 16.7C53 17.9 53.3 18.9 53.9 19.7C54.5 20.5 55.3 20.9 56.3 20.9C57.9 20.9 58.9 20.1 59.3 18.5H62.9C62.7 20.2 62 21.6 60.9 22.7C59.8 23.8 58.4 24.3 56.7 24.3C55.4 24.3 54.2 24 53.2 23.4C52.2 22.8 51.4 22 50.8 21C50.2 20 49.9 18.9 49.9 15.7Z" fill="black"/>
</svg>